<svg id="New" xmlns="http://www.w3.org/2000/svg" viewBox="0 0 200.25 62.34"><rect x="2" y="2" width="196.25" height="58.34" fill="#fff" stroke="#231f20" stroke-miterlimit="10" stroke-width="4"/><path d="M71.65,20.66H77.8l8.73,14.27h.06V20.66h4.52V41.19H85.2l-9-14.62h-.06V41.19H71.65Z"/><path d="M108.08,38.75a7,7,0,0,1-2.64,2.06,7.82,7.82,0,0,1-3.31.73A9.1,9.1,0,0,1,99.07,41a7.47,7.47,0,0,1-2.49-1.5,6.9,6.9,0,0,1-1.67-2.33,7.91,7.91,0,0,1,0-6.09,7,7,0,0,1,1.67-2.34,7.61,7.61,0,0,1,2.49-1.49,8.86,8.86,0,0,1,3.06-.52,6.9,6.9,0,0,1,2.74.52A5.75,5.75,0,0,1,107,28.76a6.85,6.85,0,0,1,1.32,2.34,9.37,9.37,0,0,1,.47,3v1.37H98.65a3.45,3.45,0,0,0,1.13,2,3.18,3.18,0,0,0,2.15.74,3.26,3.26,0,0,0,1.81-.48A4.71,4.71,0,0,0,105,36.52Zm-3.69-6.2a2.54,2.54,0,0,0-.72-1.89,2.58,2.58,0,0,0-1.94-.78,3.36,3.36,0,0,0-1.28.23,3.29,3.29,0,0,0-.94.6,2.52,2.52,0,0,0-.61.84,2.68,2.68,0,0,0-.25,1Z"/><path d="M109.7,27.1h4.64l2.87,8.84h.06l2.41-8.84h4.75L127,35.94h.06l2.64-8.84h4.41l-5,14.09h-4.29l-2.93-9.37h-.06l-2.61,9.37h-4.38Z"/></svg>