<svg id="Old_1" data-name="Project 1" xmlns="http://www.w3.org/2000/svg" viewBox="0 0 200.25 62.34"><rect x="2" y="2" width="196.25" height="58.34" fill="#fff" stroke="#231f20" stroke-miterlimit="10" stroke-width="4"/><path d="M78.55,30.92a11.58,11.58,0,0,1,.83-4.46,9.83,9.83,0,0,1,2.3-3.41,10.15,10.15,0,0,1,3.51-2.16,13.52,13.52,0,0,1,8.88,0,10.15,10.15,0,0,1,3.51,2.16,9.83,9.83,0,0,1,2.3,3.41,11.58,11.58,0,0,1,.83,4.46,11.6,11.6,0,0,1-.83,4.47,9.92,9.92,0,0,1-2.3,3.41A10.15,10.15,0,0,1,94.07,41a13.52,13.52,0,0,1-8.88,0,10.15,10.15,0,0,1-3.51-2.16,9.92,9.92,0,0,1-2.3-3.41A11.6,11.6,0,0,1,78.55,30.92Zm4.7,0a7.54,7.54,0,0,0,.45,2.66A6.13,6.13,0,0,0,85,35.67,5.83,5.83,0,0,0,87,37a7.11,7.11,0,0,0,5.24,0,5.83,5.83,0,0,0,2-1.37,6.13,6.13,0,0,0,1.29-2.09,8,8,0,0,0,0-5.29,6,6,0,0,0-1.29-2.11,5.7,5.7,0,0,0-2-1.37,7.11,7.11,0,0,0-5.24,0,5.7,5.7,0,0,0-2,1.37,6,6,0,0,0-1.29,2.11A7.53,7.53,0,0,0,83.25,30.92Z"/><path d="M103.29,19.27h4.35V41.19h-4.35Z"/><path d="M125.56,41.19h-4V39.33h-.06a4.27,4.27,0,0,1-.68.77,5,5,0,0,1-1,.71,5.31,5.31,0,0,1-1.24.52,4.82,4.82,0,0,1-1.41.21,7.22,7.22,0,0,1-2.84-.54,6.36,6.36,0,0,1-2.19-1.51,6.63,6.63,0,0,1-1.41-2.3,8.38,8.38,0,0,1-.49-2.93,8.87,8.87,0,0,1,.45-2.83A7.82,7.82,0,0,1,112,29a6.39,6.39,0,0,1,2-1.67,5.78,5.78,0,0,1,2.7-.62,7.46,7.46,0,0,1,2.53.42,4,4,0,0,1,1.93,1.43h.06V19.27h4.35Zm-4-7a3.69,3.69,0,0,0-.91-2.58,3.86,3.86,0,0,0-5.14,0,3.65,3.65,0,0,0-.91,2.58,3.61,3.61,0,0,0,.91,2.58,3.83,3.83,0,0,0,5.14,0A3.66,3.66,0,0,0,121.56,34.14Z"/></svg>