<svg id="Project_1" data-name="Project 1" xmlns="http://www.w3.org/2000/svg" viewBox="0 0 200.25 62.34"><rect x="2" y="2" width="196.25" height="58.34" fill="#fff" stroke="#231f20" stroke-miterlimit="10" stroke-width="4"/><path d="M62.37,28h7a4.81,4.81,0,0,1,3.42,1.09,4,4,0,0,1,1.13,3.09,4.23,4.23,0,0,1-1.23,3.22,5.39,5.39,0,0,1-3.78,1.16H66.59v5H62.37Zm4.22,5.8h1a2.67,2.67,0,0,0,1.71-.42,1.35,1.35,0,0,0,.49-1.08,1.53,1.53,0,0,0-.42-1.09,2.26,2.26,0,0,0-1.61-.44h-1.2Z" transform="translate(-9 -6.66)" fill="#231f20"/><path d="M75.9,31.75h3.53v1.62a4,4,0,0,1,1.06-1.45,2.24,2.24,0,0,1,1.34-.39,4,4,0,0,1,1.83.52l-1.17,2.69a2.92,2.92,0,0,0-1.06-.28,1.29,1.29,0,0,0-1.15.61,6.22,6.22,0,0,0-.59,3.23v3.3H75.9Z" transform="translate(-9 -6.66)" fill="#231f20"/><path d="M84.14,36.71A4.9,4.9,0,0,1,85.66,33a5.69,5.69,0,0,1,4.11-1.46,5.63,5.63,0,0,1,4.47,1.72A5.34,5.34,0,0,1,94,40.37a5.77,5.77,0,0,1-4.17,1.46,5.85,5.85,0,0,1-3.84-1.21A4.84,4.84,0,0,1,84.14,36.71Zm3.78,0a2.94,2.94,0,0,0,.54,1.94,1.65,1.65,0,0,0,1.34.64,1.67,1.67,0,0,0,1.34-.63,3.06,3.06,0,0,0,.52-2,2.88,2.88,0,0,0-.53-1.91,1.66,1.66,0,0,0-1.31-.62,1.71,1.71,0,0,0-1.36.63A3,3,0,0,0,87.92,36.7Z" transform="translate(-9 -6.66)" fill="#231f20"/><path d="M97.42,31.75h3.79v9.56a8.65,8.65,0,0,1-.27,2.59,2.39,2.39,0,0,1-1,1.23,3.71,3.71,0,0,1-2,.47,14.7,14.7,0,0,1-2.71-.32l.56-2.75a3.86,3.86,0,0,0,.67.09.87.87,0,0,0,.73-.32A2.35,2.35,0,0,0,97.42,41Zm0-3.75h3.79v2.6H97.42Z" transform="translate(-9 -6.66)" fill="#231f20"/><path d="M114.54,37.61H107a2.47,2.47,0,0,0,.49,1.36,1.79,1.79,0,0,0,1.43.64,2.13,2.13,0,0,0,1.06-.28,2.61,2.61,0,0,0,.66-.62l3.72.34a5.36,5.36,0,0,1-2.06,2.13,7.5,7.5,0,0,1-3.46.65,7,7,0,0,1-3.08-.56,4.45,4.45,0,0,1-1.86-1.75,5.21,5.21,0,0,1-.74-2.82A5,5,0,0,1,104.61,33a5.63,5.63,0,0,1,4.08-1.43,7.21,7.21,0,0,1,3.34.64A4.34,4.34,0,0,1,113.9,34a6.77,6.77,0,0,1,.64,3.17Zm-3.84-1.8a2.54,2.54,0,0,0-.59-1.57,1.84,1.84,0,0,0-2.7.24,2.7,2.7,0,0,0-.43,1.33Z" transform="translate(-9 -6.66)" fill="#231f20"/><path d="M123.62,37.74l3.59.41a5.11,5.11,0,0,1-1,2,4.56,4.56,0,0,1-1.73,1.27,6.86,6.86,0,0,1-2.68.46,9.65,9.65,0,0,1-2.61-.3,4.63,4.63,0,0,1-1.8-.94,4.81,4.81,0,0,1-1.17-1.53,5.34,5.34,0,0,1-.43-2.34,5.45,5.45,0,0,1,.52-2.53,4.41,4.41,0,0,1,1-1.33,4.87,4.87,0,0,1,1.35-.88,7.59,7.59,0,0,1,2.83-.45,6.56,6.56,0,0,1,3.68.86A4.55,4.55,0,0,1,127,34.92l-3.56.47a1.64,1.64,0,0,0-.6-1,2,2,0,0,0-1.19-.32,1.88,1.88,0,0,0-1.51.67,3,3,0,0,0-.58,2,2.65,2.65,0,0,0,.57,1.84,1.91,1.91,0,0,0,1.47.63,2,2,0,0,0,1.25-.38A2.23,2.23,0,0,0,123.62,37.74Z" transform="translate(-9 -6.66)" fill="#231f20"/><path d="M133.5,28v3.75h2.08v2.77H133.5V38a1.88,1.88,0,0,0,.12.83.69.69,0,0,0,.65.31,4.15,4.15,0,0,0,1.17-.24l.28,2.61a12.59,12.59,0,0,1-2.62.31,4.51,4.51,0,0,1-2.07-.36,2.22,2.22,0,0,1-1-1.1,6.33,6.33,0,0,1-.32-2.39V34.52h-1.39V31.75h1.39V29.94Z" transform="translate(-9 -6.66)" fill="#231f20"/><path d="M151.92,27.77V41.6H148.1V32.54a11.58,11.58,0,0,1-1.8,1.14,14.29,14.29,0,0,1-2.18.84v-3.1a9.1,9.1,0,0,0,3-1.5,6.1,6.1,0,0,0,1.67-2.15Z" transform="translate(-9 -6.66)" fill="#231f20"/></svg>